<svg width="100%" height="100%" viewBox="0 0 650 587" version="1.1" xmlns="http://www.w3.org/2000/svg" xmlns:xlink="http://www.w3.org/1999/xlink" xml:space="preserve" xmlns:serif="http://www.serif.com/" style="fill-rule:evenodd;clip-rule:evenodd;stroke-linecap:round;stroke-linejoin:round;stroke-miterlimit:1.5;"><path id="back" d="M522.69,237.567l-92.278,92.244c0.231,5.621 0.069,11.428 -0.496,17.424l92.774,71.508l92.602,-71.868c-0.433,-5.977 -0.876,-11.702 -0.389,-17.064l-92.213,-92.244Z" style="fill:#080808;fill-opacity:0;stroke:#3c3c3c;stroke-width:1.87px;"/><path d="M522.59,249.404l-91.506,88.372l91.506,70.899l91.705,-70.899l-91.705,-88.372Z" style="fill:#ebebeb;fill-opacity:0;stroke:#000;stroke-width:1.87px;"/><path id="bottom" d="M492.177,584.075c-54.498,-26.397 -91.9,-80.231 -95.87,-104.331c5.384,-40.888 10.051,-82.339 27.942,-118.553c4.376,-8.857 7.056,-12.304 6.288,-31.38l-0.709,17.225l92.358,70.976l92.859,-70.976l0,-9.748l0,-7.477c-1.775,11.268 0.989,21.774 6.032,31.38c14.891,34.757 23.197,75.086 27.796,118.553c-2.634,19.095 -25.16,66.954 -94.029,104.331c-18.472,1.516 -44.018,1.139 -62.667,0Z" style="fill:none;stroke:#000;stroke-width:1.88px;"/><path id="neck" d="M473.9,0.938c32.78,17.645 64.408,17.766 94.862,-0.001c3.253,8.567 6.511,17.131 11.798,24.42c-39.035,28.007 -77.909,29.302 -116.597,0c4.256,-6.808 7.123,-15.576 9.937,-24.42Z" style="fill:none;stroke:#000;stroke-width:1.88px;"/><path d="M465.566,23.005c37.928,28.026 75.572,28.36 113.384,0" style="fill:none;stroke:#000;stroke-width:1.88px;"/><path id="top" d="M422.496,42.967l40.601,-16.076c39.014,27.926 78.254,27.981 117.723,0l41.448,16.076c-1.249,68.049 8.37,108.767 26.605,127.942c-17.168,76.199 -33.508,149.148 -33.736,158.902l-92.547,-92.061l-92.125,92.061c-5.166,-32.66 -20.622,-97.52 -34.966,-158.902c22.625,-21.74 30.402,-67.03 26.997,-127.942Z" style="fill:none;stroke:#000;stroke-width:1.88px;"/><path d="M614.998,39.088l0.201,0.103l0.171,0.149l0.13,0.184l0.082,0.211l0.03,0.224l0.018,1.98l0.02,1.956l0.02,1.932l0.021,1.91l0.023,1.888l0.024,1.864l0.024,1.843l0.026,1.82l0.028,1.799l0.028,1.777l0.031,1.756l0.032,1.735l0.033,1.713l0.035,1.693l0.037,1.673l0.019,0.828l0.019,0.824l0.02,0.818l0.021,0.814l0.021,0.808l0.021,0.804l0.022,0.798l0.023,0.794l0.023,0.789l0.023,0.784l0.024,0.78l0.025,0.774l0.025,0.77l0.025,0.765l0.027,0.76l0.027,0.756l0.027,0.751l0.028,0.746l0.029,0.742l0.029,0.737l0.03,0.733l0.03,0.728l0.031,0.724l0.032,0.719l0.032,0.715l0.033,0.71l0.034,0.706l0.034,0.702l0.035,0.698l0.036,0.693l0.037,0.688l0.037,0.685l0.038,0.68l0.038,0.677l0.04,0.672l0.04,0.667l0.041,0.664l0.041,0.66l0.043,0.655l0.043,0.652l0.044,0.648l0.044,0.643l0.046,0.64l0.046,0.636l0.047,0.632l0.048,0.628l0.049,0.624l0.05,0.62l0.05,0.617l0.052,0.613l0.052,0.609l0.053,0.605l0.054,0.602l0.055,0.598l0.055,0.594l0.057,0.591l0.058,0.587l0.058,0.584l0.06,0.58l0.06,0.577l0.061,0.573l0.063,0.57l0.063,0.566l0.064,0.563l0.065,0.56l0.067,0.556l0.067,0.553l0.068,0.55l0.069,0.547l0.07,0.543l0.072,0.54l0.072,0.537l0.073,0.534l0.075,0.531l0.075,0.527l0.077,0.525l0.077,0.521l0.079,0.519l0.08,0.515l0.081,0.513l0.082,0.51l0.083,0.507l0.084,0.503l0.085,0.502l0.087,0.498l0.088,0.495l0.088,0.493l0.09,0.49l0.092,0.487l0.092,0.485l0.093,0.482l0.095,0.479l0.096,0.477l0.097,0.474l0.099,0.472l0.099,0.469l0.101,0.467l0.102,0.464l0.104,0.462l0.104,0.459l0.106,0.457l0.107,0.455l0.109,0.452l0.11,0.45l0.111,0.448l0.112,0.446l0.114,0.443l0.115,0.441l0.116,0.439l0.118,0.437l0.119,0.435l0.121,0.433l0.121,0.431l0.124,0.428l0.124,0.427l0.126,0.425l0.128,0.423l0.128,0.42l0.131,0.419l0.131,0.418l0.133,0.415l0.135,0.414l0.136,0.412l0.137,0.41l0.139,0.408l0.141,0.407l0.141,0.405l0.144,0.403l0.145,0.402l0.146,0.401l0.148,0.398l0.15,0.398l0.151,0.395l0.152,0.395l0.154,0.393l0.156,0.391l0.157,0.39l0.159,0.389l0.16,0.388l0.162,0.386l0.164,0.385l0.165,0.384l0.167,0.382l0.168,0.382l0.171,0.38l0.171,0.379l0.174,0.378l0.175,0.377l0.177,0.376l0.178,0.375l0.18,0.374l0.182,0.373l0.184,0.372l0.185,0.371l0.187,0.371l0.189,0.369l0.191,0.369l0.192,0.368l0.194,0.368l0.196,0.366l0.198,0.366l0.199,0.365l0.202,0.365l0.203,0.364l0.205,0.363l0.206,0.363l0.209,0.362l0.21,0.362l0.213,0.361l0.214,0.361l0.216,0.361l0.218,0.36l0.22,0.36l0.222,0.359l0.223,0.359l0.226,0.359l0.227,0.359l0.23,0.358l0.231,0.358l0.234,0.358l0.235,0.358l0.237,0.358l0.24,0.358l0.241,0.358l0.244,0.357l0.245,0.358l0.247,0.358l0.25,0.357l0.251,0.358l0.254,0.358l0.255,0.358l0.258,0.359l0.26,0.358l0.262,0.359l0.264,0.359l0.266,0.359l0.268,0.359l0.27,0.36l0.273,0.36l0.274,0.361l0.277,0.361l0.279,0.361l0.281,0.362l0.283,0.363l0.285,0.363l0.288,0.363l0.29,0.364l0.292,0.365l0.294,0.365l0.297,0.366l0.298,0.367l0.301,0.367l0.304,0.368l0.305,0.369l0.308,0.369l0.31,0.371l0.312,0.371l0.315,0.372l0.317,0.373l0.319,0.374l0.322,0.375l0.324,0.376l0.326,0.377l0.329,0.378l0.331,0.379l0.334,0.381l0.127,0.186l0.079,0.212l0.026,0.224l-0.028,0.225l-0.081,0.21l-0.13,0.186l-0.169,0.149l-0.201,0.104l-0.22,0.053l-0.226,-0.001l-0.219,-0.055l-0.2,-0.106l-0.168,-0.151l-0.335,-0.382l-0.334,-0.382l-0.331,-0.381l-0.329,-0.38l-0.327,-0.38l-0.324,-0.378l-0.323,-0.377l-0.319,-0.376l-0.318,-0.376l-0.315,-0.375l-0.314,-0.374l-0.31,-0.373l-0.309,-0.373l-0.306,-0.372l-0.305,-0.371l-0.302,-0.371l-0.299,-0.37l-0.298,-0.369l-0.295,-0.369l-0.294,-0.368l-0.291,-0.368l-0.289,-0.367l-0.286,-0.367l-0.285,-0.367l-0.282,-0.366l-0.281,-0.366l-0.278,-0.365l-0.276,-0.365l-0.274,-0.365l-0.272,-0.365l-0.27,-0.364l-0.268,-0.364l-0.266,-0.364l-0.263,-0.364l-0.262,-0.364l-0.259,-0.363l-0.258,-0.364l-0.255,-0.363l-0.254,-0.364l-0.251,-0.363l-0.25,-0.364l-0.247,-0.364l-0.246,-0.363l-0.243,-0.364l-0.241,-0.364l-0.24,-0.365l-0.238,-0.364l-0.235,-0.365l-0.234,-0.365l-0.231,-0.365l-0.23,-0.365l-0.228,-0.366l-0.226,-0.366l-0.224,-0.367l-0.222,-0.367l-0.22,-0.367l-0.219,-0.368l-0.216,-0.369l-0.215,-0.369l-0.213,-0.369l-0.211,-0.37l-0.209,-0.371l-0.207,-0.371l-0.205,-0.372l-0.204,-0.373l-0.201,-0.373l-0.2,-0.375l-0.199,-0.374l-0.196,-0.376l-0.194,-0.377l-0.193,-0.377l-0.191,-0.378l-0.189,-0.379l-0.188,-0.38l-0.186,-0.381l-0.184,-0.382l-0.182,-0.383l-0.181,-0.384l-0.178,-0.385l-0.178,-0.386l-0.175,-0.387l-0.174,-0.389l-0.172,-0.389l-0.17,-0.391l-0.169,-0.392l-0.167,-0.393l-0.165,-0.394l-0.164,-0.396l-0.162,-0.397l-0.161,-0.398l-0.159,-0.4l-0.157,-0.401l-0.156,-0.402l-0.154,-0.404l-0.152,-0.406l-0.151,-0.406l-0.15,-0.409l-0.147,-0.41l-0.147,-0.411l-0.144,-0.413l-0.144,-0.415l-0.141,-0.417l-0.14,-0.418l-0.139,-0.419l-0.137,-0.422l-0.136,-0.423l-0.134,-0.425l-0.132,-0.427l-0.132,-0.429l-0.129,-0.43l-0.128,-0.433l-0.127,-0.434l-0.126,-0.436l-0.124,-0.439l-0.122,-0.44l-0.121,-0.442l-0.12,-0.444l-0.118,-0.447l-0.117,-0.448l-0.116,-0.451l-0.114,-0.453l-0.113,-0.455l-0.112,-0.457l-0.11,-0.459l-0.108,-0.462l-0.108,-0.464l-0.106,-0.466l-0.105,-0.469l-0.104,-0.471l-0.102,-0.473l-0.101,-0.476l-0.1,-0.478l-0.098,-0.481l-0.098,-0.483l-0.096,-0.486l-0.094,-0.488l-0.094,-0.491l-0.092,-0.493l-0.091,-0.496l-0.09,-0.499l-0.089,-0.501l-0.088,-0.505l-0.086,-0.506l-0.085,-0.51l-0.084,-0.513l-0.083,-0.515l-0.082,-0.518l-0.08,-0.521l-0.08,-0.524l-0.078,-0.527l-0.078,-0.53l-0.076,-0.532l-0.075,-0.536l-0.074,-0.539l-0.073,-0.542l-0.072,-0.545l-0.071,-0.548l-0.07,-0.552l-0.068,-0.554l-0.068,-0.558l-0.067,-0.561l-0.066,-0.564l-0.064,-0.567l-0.064,-0.571l-0.063,-0.574l-0.062,-0.578l-0.06,-0.581l-0.06,-0.584l-0.059,-0.588l-0.058,-0.591l-0.057,-0.595l-0.056,-0.598l-0.056,-0.602l-0.054,-0.605l-0.053,-0.609l-0.053,-0.613l-0.051,-0.617l-0.051,-0.62l-0.05,-0.623l-0.049,-0.628l-0.048,-0.631l-0.048,-0.635l-0.046,-0.639l-0.046,-0.643l-0.045,-0.647l-0.044,-0.651l-0.043,-0.654l-0.043,-0.659l-0.042,-0.662l-0.041,-0.667l-0.04,-0.67l-0.04,-0.675l-0.038,-0.679l-0.038,-0.683l-0.038,-0.687l-0.036,-0.691l-0.036,-0.696l-0.035,-0.7l-0.035,-0.704l-0.034,-0.708l-0.033,-0.713l-0.032,-0.717l-0.032,-0.721l-0.031,-0.726l-0.031,-0.731l-0.03,-0.734l-0.029,-0.74l-0.029,-0.743l-0.028,-0.749l-0.027,-0.753l-0.027,-0.757l-0.026,-0.762l-0.026,-0.767l-0.025,-0.772l-0.025,-0.776l-0.024,-0.781l-0.024,-0.785l-0.023,-0.791l-0.022,-0.795l-0.022,-0.8l-0.022,-0.806l-0.021,-0.809l-0.02,-0.815l-0.02,-0.82l-0.02,-0.825l-0.019,-0.83l-0.037,-1.675l-0.035,-1.695l-0.033,-1.716l-0.032,-1.737l-0.03,-1.757l-0.029,-1.779l-0.027,-1.801l-0.027,-1.822l-0.024,-1.844l-0.024,-1.866l-0.022,-1.889l-0.022,-1.911l-0.02,-1.934l-0.02,-1.957l-0.018,-1.98l0.025,-0.225l0.078,-0.212l0.127,-0.187l0.167,-0.152l0.199,-0.106l0.219,-0.057l0.226,-0.002l0.22,0.052Z"/><path d="M430.116,39.968c4.516,82.573 -9.602,121.758 -31.979,138.383" style="fill:none;stroke:#000;stroke-width:1.88px;"/><path d="M116.67,13.719l11.359,28.366l0,287.857" style="fill:none;stroke:#000;stroke-width:1.88px;"/><path d="M139.986,13.719l-10.676,28.366l0,6.046l6.995,11.514c-1.507,1.92 -3.496,2.977 -5.945,3.212c-1.021,-3.49 -1.211,-8.737 -1.05,-14.726" style="fill:none;stroke:#000;stroke-width:1.88px;"/><path id="bottom1" serif:id="bottom" d="M100.256,581.645c-5.554,-70.244 -39.185,-103.11 -98.511,-101.77c5.384,-40.887 10.051,-82.339 27.943,-118.553c4.375,-8.856 7.056,-12.303 6.288,-31.38l184.508,0c-1.775,11.268 0.989,21.775 6.032,31.38c14.891,34.758 23.197,75.087 27.796,118.553c-55.462,-2.876 -91.547,25.708 -98.39,101.77c-18.607,4.142 -37.16,3.905 -55.666,0Z" style="fill:none;stroke:#000;stroke-width:1.88px;"/><path id="neck1" serif:id="neck" d="M79.339,1.069c32.779,17.646 64.407,17.767 94.861,0c3.254,8.567 6.511,17.131 11.799,24.42c-39.036,28.007 -77.909,29.301 -116.597,0c4.256,-6.808 7.122,-15.577 9.937,-24.42Z" style="fill:none;stroke:#000;stroke-width:1.88px;"/><path d="M71.005,23.137c37.928,28.026 75.571,28.359 113.383,0" style="fill:none;stroke:#000;stroke-width:1.88px;"/><path id="top1" serif:id="top" d="M27.935,43.098l40.6,-16.076c39.014,27.927 78.255,27.982 117.723,0l41.449,16.076c0.412,64.264 10.07,104.891 26.605,127.943c-17.169,76.199 -33.508,149.148 -33.737,158.901l-184.671,0c-5.166,-32.659 -20.622,-97.519 -34.966,-158.901c16.86,-24.379 24.743,-69.62 26.997,-127.943Z" style="fill:none;stroke:#000;stroke-width:1.88px;"/><path d="M220.431,39.218l0.202,0.102l0.171,0.147l0.132,0.184l0.083,0.21l0.031,0.223l0.015,0.947l0.016,0.942l0.018,0.939l0.018,0.935l0.019,0.931l0.021,0.928l0.021,0.924l0.022,0.92l0.024,0.916l0.024,0.913l0.026,0.909l0.026,0.905l0.027,0.902l0.029,0.898l0.029,0.895l0.031,0.891l0.031,0.887l0.032,0.883l0.034,0.88l0.034,0.877l0.036,0.872l0.036,0.869l0.037,0.866l0.039,0.862l0.039,0.858l0.04,0.855l0.042,0.851l0.042,0.848l0.043,0.844l0.045,0.84l0.045,0.837l0.046,0.833l0.047,0.83l0.048,0.827l0.049,0.822l0.05,0.82l0.051,0.816l0.052,0.812l0.053,0.809l0.054,0.805l0.055,0.802l0.056,0.798l0.057,0.795l0.057,0.791l0.059,0.788l0.06,0.785l0.06,0.781l0.062,0.777l0.062,0.774l0.063,0.771l0.065,0.767l0.065,0.764l0.066,0.761l0.067,0.757l0.068,0.753l0.069,0.751l0.07,0.746l0.071,0.744l0.072,0.74l0.072,0.737l0.074,0.733l0.075,0.73l0.075,0.727l0.076,0.723l0.078,0.72l0.078,0.717l0.079,0.713l0.08,0.71l0.081,0.707l0.082,0.703l0.082,0.701l0.084,0.696l0.084,0.694l0.086,0.69l0.086,0.687l0.087,0.684l0.088,0.68l0.089,0.678l0.09,0.674l0.091,0.67l0.091,0.668l0.093,0.664l0.093,0.661l0.095,0.658l0.095,0.654l0.096,0.652l0.097,0.648l0.097,0.645l0.099,0.642l0.1,0.638l0.1,0.636l0.101,0.632l0.102,0.629l0.103,0.626l0.104,0.623l0.105,0.619l0.105,0.617l0.107,0.613l0.107,0.611l0.108,0.607l0.109,0.604l0.109,0.601l0.111,0.597l0.112,0.595l0.112,0.592l0.113,0.588l0.114,0.586l0.115,0.582l0.115,0.58l0.117,0.576l0.117,0.573l0.118,0.57l0.119,0.567l0.12,0.565l0.12,0.561l0.122,0.558l0.122,0.555l0.123,0.552l0.124,0.549l0.125,0.546l0.125,0.543l0.126,0.54l0.127,0.537l0.128,0.534l0.129,0.531l0.129,0.529l0.131,0.525l0.131,0.522l0.132,0.519l0.132,0.517l0.134,0.513l0.134,0.511l0.135,0.508l0.136,0.504l0.136,0.502l0.138,0.499l0.138,0.496l0.139,0.494l0.139,0.49l0.141,0.487l0.141,0.485l0.142,0.482l0.143,0.478l0.144,0.476l0.144,0.474l0.145,0.47l0.146,0.467l0.146,0.465l0.148,0.462l0.148,0.459l0.149,0.456l0.149,0.454l0.15,0.45l0.152,0.448l0.151,0.445l0.153,0.443l0.153,0.439l0.154,0.437l0.155,0.434l0.156,0.431l0.156,0.429l0.157,0.426l0.157,0.423l0.159,0.42l0.159,0.418l0.16,0.415l0.16,0.412l0.162,0.41l0.162,0.407l0.162,0.404l0.164,0.401l0.164,0.399l0.165,0.396l0.165,0.394l0.167,0.391l0.167,0.388l0.167,0.386l0.169,0.382l0.169,0.381l0.169,0.377l0.171,0.376l0.171,0.372l0.172,0.37l0.172,0.367l0.173,0.365l0.174,0.362l0.175,0.359l0.175,0.357l0.176,0.355l0.176,0.352l0.177,0.349l0.178,0.347l0.179,0.344l0.179,0.341l0.18,0.34l0.18,0.336l0.181,0.334l0.182,0.332l0.183,0.329l0.183,0.327l0.183,0.324l0.185,0.321l0.185,0.32l0.185,0.316l0.187,0.315l0.187,0.311l0.187,0.31l0.189,0.307l0.188,0.304l0.19,0.302l0.19,0.3l0.191,0.297l0.191,0.295l0.192,0.292l0.193,0.29l0.193,0.288l0.194,0.285l0.194,0.283l0.195,0.28l0.196,0.279l0.196,0.275l0.197,0.274l0.197,0.271l0.198,0.269l0.199,0.266l0.199,0.264l0.2,0.262l0.2,0.26l0.201,0.257l0.202,0.255l0.202,0.252l0.203,0.251l0.203,0.248l0.204,0.246l0.205,0.243l0.205,0.242l0.205,0.239l0.206,0.237l0.207,0.234l0.208,0.233l0.207,0.23l0.209,0.228l0.209,0.226l0.21,0.223l0.21,0.221l0.21,0.22l0.212,0.217l0.212,0.215l0.212,0.212l0.213,0.211l0.213,0.208l0.214,0.207l0.215,0.204l0.215,0.202l0.216,0.2l0.218,0.2l0.147,0.171l0.102,0.202l0.051,0.22l-0.004,0.226l-0.058,0.219l-0.108,0.198l-0.152,0.167l-0.188,0.125l-0.213,0.077l-0.225,0.024l-0.224,-0.031l-0.21,-0.084l-0.184,-0.131l-0.222,-0.204l-0.225,-0.208l-0.224,-0.211l-0.223,-0.212l-0.223,-0.215l-0.222,-0.217l-0.222,-0.219l-0.221,-0.221l-0.22,-0.223l-0.219,-0.226l-0.219,-0.227l-0.218,-0.23l-0.218,-0.232l-0.217,-0.235l-0.216,-0.236l-0.216,-0.239l-0.215,-0.241l-0.214,-0.243l-0.214,-0.245l-0.213,-0.248l-0.212,-0.25l-0.212,-0.252l-0.211,-0.254l-0.21,-0.257l-0.21,-0.259l-0.209,-0.261l-0.208,-0.263l-0.207,-0.266l-0.207,-0.268l-0.207,-0.27l-0.205,-0.273l-0.205,-0.275l-0.204,-0.277l-0.204,-0.28l-0.203,-0.281l-0.202,-0.285l-0.202,-0.286l-0.2,-0.289l-0.201,-0.291l-0.199,-0.294l-0.199,-0.296l-0.198,-0.298l-0.197,-0.3l-0.197,-0.303l-0.196,-0.306l-0.195,-0.308l-0.195,-0.31l-0.193,-0.312l-0.194,-0.315l-0.192,-0.318l-0.192,-0.319l-0.191,-0.322l-0.19,-0.325l-0.19,-0.327l-0.189,-0.33l-0.188,-0.332l-0.187,-0.334l-0.187,-0.337l-0.186,-0.339l-0.185,-0.342l-0.185,-0.344l-0.184,-0.347l-0.183,-0.349l-0.182,-0.352l-0.182,-0.354l-0.181,-0.357l-0.18,-0.359l-0.18,-0.362l-0.178,-0.364l-0.179,-0.367l-0.177,-0.369l-0.176,-0.372l-0.176,-0.375l-0.175,-0.377l-0.175,-0.379l-0.173,-0.382l-0.173,-0.385l-0.172,-0.388l-0.172,-0.389l-0.17,-0.393l-0.17,-0.395l-0.169,-0.398l-0.169,-0.4l-0.168,-0.403l-0.166,-0.405l-0.167,-0.409l-0.165,-0.41l-0.165,-0.414l-0.163,-0.416l-0.164,-0.419l-0.162,-0.421l-0.161,-0.424l-0.161,-0.427l-0.16,-0.429l-0.16,-0.433l-0.158,-0.434l-0.158,-0.438l-0.157,-0.44l-0.156,-0.443l-0.156,-0.446l-0.154,-0.448l-0.154,-0.451l-0.153,-0.454l-0.152,-0.457l-0.152,-0.459l-0.151,-0.462l-0.15,-0.465l-0.149,-0.468l-0.148,-0.47l-0.148,-0.474l-0.147,-0.476l-0.146,-0.478l-0.145,-0.482l-0.144,-0.484l-0.144,-0.488l-0.143,-0.49l-0.142,-0.493l-0.141,-0.495l-0.141,-0.499l-0.139,-0.501l-0.139,-0.505l-0.138,-0.507l-0.137,-0.51l-0.137,-0.513l-0.135,-0.515l-0.135,-0.519l-0.134,-0.522l-0.133,-0.524l-0.133,-0.527l-0.131,-0.531l-0.131,-0.533l-0.13,-0.536l-0.129,-0.539l-0.128,-0.542l-0.127,-0.545l-0.127,-0.547l-0.126,-0.551l-0.125,-0.554l-0.124,-0.557l-0.123,-0.559l-0.122,-0.563l-0.122,-0.566l-0.121,-0.568l-0.119,-0.572l-0.119,-0.575l-0.119,-0.578l-0.117,-0.58l-0.116,-0.584l-0.116,-0.587l-0.115,-0.59l-0.114,-0.592l-0.113,-0.596l-0.112,-0.599l-0.112,-0.602l-0.11,-0.605l-0.11,-0.609l-0.109,-0.611l-0.108,-0.614l-0.107,-0.618l-0.106,-0.62l-0.105,-0.624l-0.105,-0.627l-0.103,-0.63l-0.103,-0.633l-0.102,-0.636l-0.101,-0.639l-0.1,-0.643l-0.099,-0.645l-0.098,-0.649l-0.098,-0.652l-0.096,-0.655l-0.096,-0.658l-0.095,-0.662l-0.094,-0.665l-0.093,-0.668l-0.092,-0.671l-0.091,-0.674l-0.091,-0.677l-0.089,-0.681l-0.088,-0.684l-0.088,-0.687l-0.087,-0.691l-0.086,-0.694l-0.085,-0.697l-0.084,-0.7l-0.083,-0.703l-0.082,-0.707l-0.081,-0.71l-0.081,-0.713l-0.079,-0.717l-0.078,-0.72l-0.078,-0.723l-0.077,-0.727l-0.076,-0.73l-0.074,-0.733l-0.074,-0.737l-0.073,-0.739l-0.072,-0.744l-0.071,-0.746l-0.071,-0.75l-0.069,-0.754l-0.068,-0.756l-0.068,-0.76l-0.066,-0.764l-0.066,-0.767l-0.064,-0.77l-0.064,-0.773l-0.062,-0.778l-0.062,-0.78l-0.061,-0.784l-0.06,-0.787l-0.059,-0.791l-0.058,-0.794l-0.057,-0.798l-0.055,-0.801l-0.056,-0.805l-0.054,-0.808l-0.053,-0.811l-0.052,-0.815l-0.051,-0.819l-0.05,-0.822l-0.05,-0.825l-0.048,-0.829l-0.047,-0.832l-0.046,-0.837l-0.046,-0.839l-0.044,-0.843l-0.044,-0.847l-0.042,-0.85l-0.041,-0.854l-0.041,-0.857l-0.039,-0.861l-0.039,-0.864l-0.037,-0.868l-0.037,-0.872l-0.035,-0.875l-0.035,-0.878l-0.033,-0.883l-0.033,-0.886l-0.031,-0.889l-0.031,-0.893l-0.029,-0.897l-0.029,-0.901l-0.027,-0.904l-0.027,-0.907l-0.025,-0.912l-0.025,-0.915l-0.023,-0.919l-0.022,-0.922l-0.022,-0.926l-0.02,-0.93l-0.02,-0.933l-0.018,-0.937l-0.017,-0.941l-0.017,-0.945l-0.015,-0.947l0.024,-0.225l0.077,-0.213l0.125,-0.188l0.167,-0.152l0.198,-0.109l0.219,-0.057l0.226,-0.004l0.22,0.051Z"/><path d="M35.683,39.171l0.218,0.057l0.199,0.109l0.166,0.152l0.126,0.188l0.076,0.213l0.024,0.225l-0.015,0.947l-0.016,0.945l-0.018,0.941l-0.018,0.937l-0.019,0.933l-0.021,0.93l-0.021,0.926l-0.023,0.922l-0.023,0.919l-0.025,0.915l-0.025,0.912l-0.026,0.907l-0.028,0.904l-0.028,0.901l-0.03,0.897l-0.03,0.893l-0.032,0.889l-0.032,0.886l-0.034,0.883l-0.034,0.878l-0.036,0.875l-0.036,0.872l-0.038,0.868l-0.038,0.864l-0.04,0.861l-0.04,0.857l-0.042,0.854l-0.042,0.85l-0.044,0.847l-0.044,0.843l-0.045,0.839l-0.047,0.837l-0.047,0.832l-0.048,0.829l-0.049,0.825l-0.051,0.822l-0.051,0.819l-0.052,0.815l-0.053,0.811l-0.054,0.808l-0.055,0.805l-0.056,0.801l-0.057,0.798l-0.058,0.794l-0.059,0.791l-0.06,0.787l-0.061,0.784l-0.061,0.78l-0.063,0.778l-0.064,0.773l-0.064,0.77l-0.066,0.767l-0.066,0.764l-0.067,0.76l-0.069,0.756l-0.069,0.754l-0.07,0.75l-0.071,0.746l-0.072,0.744l-0.073,0.739l-0.074,0.737l-0.075,0.733l-0.076,0.73l-0.077,0.727l-0.077,0.723l-0.079,0.72l-0.079,0.717l-0.081,0.713l-0.081,0.71l-0.082,0.707l-0.083,0.703l-0.084,0.7l-0.085,0.697l-0.086,0.694l-0.087,0.691l-0.087,0.687l-0.089,0.684l-0.089,0.681l-0.091,0.677l-0.091,0.674l-0.092,0.671l-0.093,0.668l-0.094,0.665l-0.095,0.662l-0.095,0.658l-0.097,0.655l-0.097,0.652l-0.099,0.649l-0.099,0.645l-0.1,0.643l-0.101,0.639l-0.102,0.636l-0.102,0.633l-0.104,0.63l-0.105,0.627l-0.105,0.624l-0.106,0.62l-0.107,0.618l-0.108,0.614l-0.109,0.611l-0.11,0.609l-0.11,0.605l-0.111,0.602l-0.113,0.599l-0.113,0.596l-0.114,0.592l-0.115,0.59l-0.115,0.587l-0.117,0.584l-0.117,0.58l-0.118,0.578l-0.119,0.575l-0.12,0.571l-0.121,0.569l-0.121,0.566l-0.123,0.563l-0.123,0.559l-0.124,0.557l-0.125,0.554l-0.126,0.551l-0.126,0.547l-0.128,0.545l-0.128,0.542l-0.129,0.539l-0.13,0.536l-0.131,0.533l-0.131,0.531l-0.132,0.527l-0.134,0.524l-0.134,0.522l-0.134,0.519l-0.136,0.515l-0.136,0.513l-0.138,0.51l-0.138,0.507l-0.138,0.505l-0.14,0.501l-0.14,0.499l-0.142,0.495l-0.142,0.493l-0.143,0.49l-0.143,0.487l-0.145,0.485l-0.145,0.482l-0.146,0.478l-0.147,0.476l-0.147,0.474l-0.149,0.47l-0.149,0.468l-0.15,0.465l-0.151,0.462l-0.151,0.459l-0.153,0.457l-0.153,0.454l-0.154,0.451l-0.154,0.448l-0.156,0.446l-0.156,0.443l-0.157,0.44l-0.158,0.438l-0.158,0.434l-0.159,0.433l-0.16,0.429l-0.161,0.427l-0.162,0.424l-0.162,0.421l-0.163,0.419l-0.164,0.416l-0.165,0.414l-0.165,0.41l-0.166,0.409l-0.167,0.405l-0.168,0.403l-0.168,0.4l-0.169,0.398l-0.17,0.395l-0.171,0.393l-0.171,0.389l-0.172,0.388l-0.173,0.385l-0.174,0.382l-0.174,0.379l-0.175,0.377l-0.176,0.375l-0.177,0.372l-0.177,0.369l-0.178,0.367l-0.179,0.364l-0.18,0.362l-0.18,0.359l-0.181,0.357l-0.181,0.354l-0.183,0.352l-0.183,0.349l-0.184,0.347l-0.184,0.344l-0.186,0.342l-0.186,0.339l-0.187,0.337l-0.187,0.334l-0.188,0.332l-0.189,0.33l-0.19,0.327l-0.19,0.325l-0.191,0.322l-0.192,0.319l-0.192,0.318l-0.193,0.315l-0.194,0.312l-0.195,0.311l-0.195,0.307l-0.196,0.306l-0.197,0.303l-0.197,0.3l-0.198,0.298l-0.199,0.296l-0.199,0.294l-0.2,0.291l-0.201,0.289l-0.202,0.286l-0.202,0.285l-0.203,0.281l-0.203,0.28l-0.204,0.277l-0.205,0.275l-0.206,0.273l-0.206,0.27l-0.207,0.268l-0.208,0.266l-0.208,0.263l-0.209,0.261l-0.21,0.259l-0.21,0.257l-0.211,0.254l-0.212,0.252l-0.212,0.25l-0.213,0.248l-0.214,0.245l-0.214,0.243l-0.215,0.241l-0.216,0.239l-0.216,0.236l-0.217,0.235l-0.217,0.232l-0.219,0.23l-0.218,0.227l-0.22,0.226l-0.22,0.223l-0.221,0.221l-0.221,0.219l-0.223,0.217l-0.222,0.215l-0.224,0.212l-0.224,0.211l-0.224,0.208l-0.223,0.204l-0.184,0.131l-0.21,0.084l-0.224,0.031l-0.225,-0.024l-0.212,-0.077l-0.188,-0.125l-0.153,-0.167l-0.108,-0.198l-0.058,-0.219l-0.003,-0.226l0.05,-0.22l0.102,-0.202l0.147,-0.171l0.219,-0.2l0.215,-0.2l0.215,-0.202l0.215,-0.204l0.214,-0.207l0.213,-0.208l0.213,-0.211l0.213,-0.212l0.212,-0.215l0.211,-0.217l0.211,-0.22l0.21,-0.221l0.209,-0.223l0.209,-0.226l0.209,-0.228l0.208,-0.23l0.207,-0.233l0.207,-0.234l0.206,-0.237l0.206,-0.239l0.205,-0.242l0.204,-0.243l0.204,-0.246l0.204,-0.248l0.202,-0.251l0.202,-0.252l0.202,-0.255l0.201,-0.257l0.2,-0.26l0.2,-0.262l0.2,-0.264l0.198,-0.266l0.198,-0.269l0.198,-0.271l0.196,-0.274l0.197,-0.275l0.195,-0.279l0.195,-0.28l0.195,-0.283l0.194,-0.285l0.193,-0.288l0.192,-0.29l0.192,-0.292l0.192,-0.295l0.19,-0.297l0.19,-0.3l0.19,-0.302l0.189,-0.304l0.188,-0.307l0.188,-0.31l0.187,-0.311l0.186,-0.315l0.185,-0.316l0.186,-0.32l0.184,-0.321l0.184,-0.324l0.183,-0.327l0.182,-0.329l0.182,-0.332l0.181,-0.334l0.181,-0.336l0.179,-0.34l0.18,-0.341l0.178,-0.344l0.178,-0.347l0.177,-0.349l0.177,-0.352l0.176,-0.355l0.175,-0.357l0.174,-0.359l0.174,-0.362l0.173,-0.365l0.173,-0.367l0.171,-0.37l0.172,-0.372l0.17,-0.376l0.17,-0.377l0.169,-0.381l0.168,-0.382l0.168,-0.386l0.167,-0.388l0.166,-0.391l0.165,-0.394l0.165,-0.396l0.164,-0.399l0.164,-0.401l0.163,-0.404l0.162,-0.407l0.161,-0.41l0.16,-0.412l0.16,-0.415l0.159,-0.418l0.159,-0.42l0.158,-0.423l0.156,-0.426l0.157,-0.429l0.155,-0.431l0.155,-0.434l0.154,-0.437l0.153,-0.439l0.153,-0.443l0.152,-0.445l0.151,-0.448l0.15,-0.45l0.15,-0.454l0.149,-0.456l0.148,-0.459l0.147,-0.462l0.147,-0.465l0.145,-0.467l0.145,-0.47l0.145,-0.474l0.143,-0.476l0.143,-0.478l0.142,-0.482l0.141,-0.485l0.141,-0.487l0.14,-0.491l0.138,-0.493l0.139,-0.496l0.137,-0.499l0.137,-0.502l0.135,-0.504l0.135,-0.508l0.135,-0.511l0.133,-0.513l0.133,-0.517l0.132,-0.519l0.131,-0.522l0.13,-0.525l0.129,-0.529l0.129,-0.531l0.128,-0.534l0.127,-0.537l0.126,-0.54l0.126,-0.543l0.124,-0.546l0.124,-0.549l0.123,-0.552l0.123,-0.555l0.121,-0.558l0.12,-0.562l0.12,-0.564l0.119,-0.567l0.118,-0.57l0.118,-0.573l0.116,-0.576l0.116,-0.58l0.114,-0.582l0.114,-0.586l0.113,-0.588l0.113,-0.592l0.111,-0.595l0.111,-0.597l0.11,-0.601l0.108,-0.604l0.109,-0.607l0.107,-0.611l0.106,-0.613l0.106,-0.617l0.104,-0.619l0.104,-0.623l0.103,-0.626l0.102,-0.629l0.101,-0.632l0.101,-0.636l0.099,-0.638l0.099,-0.642l0.098,-0.645l0.097,-0.648l0.096,-0.652l0.095,-0.654l0.094,-0.658l0.093,-0.661l0.093,-0.664l0.091,-0.668l0.091,-0.67l0.09,-0.674l0.089,-0.678l0.088,-0.68l0.087,-0.684l0.087,-0.687l0.085,-0.69l0.084,-0.694l0.084,-0.696l0.083,-0.701l0.082,-0.703l0.08,-0.707l0.08,-0.71l0.079,-0.713l0.079,-0.717l0.077,-0.72l0.076,-0.723l0.076,-0.727l0.074,-0.73l0.074,-0.733l0.072,-0.737l0.072,-0.74l0.071,-0.744l0.07,-0.746l0.069,-0.751l0.068,-0.753l0.067,-0.757l0.066,-0.761l0.066,-0.764l0.064,-0.767l0.063,-0.771l0.063,-0.774l0.061,-0.777l0.061,-0.781l0.059,-0.785l0.059,-0.788l0.058,-0.791l0.056,-0.795l0.056,-0.798l0.055,-0.802l0.054,-0.805l0.053,-0.809l0.052,-0.812l0.051,-0.816l0.05,-0.82l0.049,-0.822l0.048,-0.827l0.047,-0.83l0.047,-0.833l0.045,-0.837l0.044,-0.84l0.043,-0.844l0.043,-0.848l0.041,-0.851l0.04,-0.855l0.04,-0.858l0.038,-0.862l0.037,-0.866l0.037,-0.869l0.035,-0.872l0.034,-0.877l0.034,-0.88l0.032,-0.883l0.032,-0.887l0.03,-0.891l0.03,-0.895l0.028,-0.898l0.027,-0.902l0.027,-0.905l0.025,-0.909l0.025,-0.913l0.023,-0.916l0.022,-0.92l0.022,-0.924l0.02,-0.928l0.019,-0.931l0.019,-0.935l0.017,-0.939l0.016,-0.942l0.015,-0.947l0.031,-0.223l0.084,-0.21l0.131,-0.184l0.172,-0.147l0.201,-0.102l0.221,-0.051l0.226,0.004Z"/></svg>
