<svg width="651px" height="593px" viewBox="-1 -6 651 593">
    <g id="leotard" stroke="none" stroke-width="1" fill="none" fill-rule="evenodd">
        <path class="back" d="M522.69,237.567 L430.412,329.811 C430.643,335.432 430.481,341.239 429.916,347.235 L522.69,418.743 L615.292,346.875 C614.859,340.898 614.416,335.173 614.903,329.811 L522.69,237.567 L522.69,237.567 Z" stroke="#3C3C3C" stroke-width="1.87" fill-rule="evenodd"></path>
        <polygon stroke="#000000" stroke-width="1.87" points="522.59 249.404 431.084 337.776 522.59 408.675 614.295 337.776"></polygon>
        <path class="bottom" d="M492.177,584.075 C437.679,557.678 400.277,503.844 396.307,479.744 C401.691,438.856 406.358,397.405 424.249,361.191 C428.625,352.334 431.305,348.887 430.537,329.811 L429.828,347.036 L522.186,418.012 L615.045,347.036 L615.045,337.288 L615.045,329.811 C613.27,341.079 616.034,351.585 621.077,361.191 C635.968,395.948 644.274,436.277 648.873,479.744 C646.239,498.839 623.713,546.698 554.844,584.075 C536.372,585.591 510.826,585.214 492.177,584.075 L492.177,584.075 Z"  stroke="#000000" stroke-width="1.88"></path>
        <path class="neck" d="M473.9,0.938 C506.68,18.583 538.308,18.704 568.762,0.937 C572.015,9.504 575.273,18.068 580.56,25.357 C541.525,53.364 502.651,54.659 463.963,25.357 C468.219,18.549 471.086,9.781 473.9,0.937 L473.9,0.938 Z" stroke="#000000" stroke-width="1.88"></path>
        <path d="M465.566,23.005 C503.494,51.031 541.138,51.365 578.95,23.005" stroke="#000000" stroke-width="1.88"></path>
        <path class="top" d="M422.496,42.967 L463.097,26.891 C502.111,54.817 541.351,54.872 580.82,26.891 L622.268,42.967 C621.019,111.016 630.638,151.734 648.873,170.909 C631.705,247.108 615.365,320.057 615.137,329.811 L522.59,237.75 L430.465,329.811 C425.299,297.151 409.843,232.291 395.499,170.909 C418.124,149.169 425.901,103.879 422.496,42.967 L422.496,42.967 Z"  stroke="#000000" stroke-width="1.88"></path>
        <path d="M645.979,40 C650.495,122.573 636.377,161.758 614,178.383" stroke="#000000" stroke-width="1.88" transform="translate(630.409656, 109.191500) scale(-1, 1) translate(-630.409656, -109.191500) "></path>
        <path d="M430.116,39.968 C434.632,122.541 420.514,161.726 398.137,178.351" stroke="#000000" stroke-width="1.88"></path>
        <polyline stroke="#000000" stroke-width="1.88" points="116.67 13.719 128.029 42.085 128.029 329.942"></polyline>
        <path d="M139.986,13.719 L129.31,42.085 L129.31,48.131 L136.305,59.645 C134.798,61.565 132.809,62.622 130.36,62.857 C129.339,59.367 129.149,54.12 129.31,48.131" stroke="#000000" stroke-width="1.88"></path>
        <path class="bottom" d="M100.256,581.645 C94.702,511.401 61.071,478.535 1.745,479.875 C7.129,438.988 11.796,397.536 29.688,361.322 C34.063,352.466 36.744,349.019 35.976,329.942 L220.484,329.942 C218.709,341.21 221.473,351.717 226.516,361.322 C241.407,396.08 249.713,436.409 254.312,479.875 C198.85,476.999 162.765,505.583 155.922,581.645 C137.315,585.787 118.762,585.55 100.256,581.645 L100.256,581.645 Z"  stroke="#000000" stroke-width="1.88"></path>
        <path class="neck" d="M79.339,1.069 C112.118,18.715 143.746,18.836 174.2,1.069 C177.454,9.636 180.711,18.2 185.999,25.489 C146.963,53.496 108.09,54.79 69.402,25.489 C73.658,18.681 76.524,9.912 79.339,1.069 L79.339,1.069 Z" stroke="#000000" stroke-width="1.88"></path>
        <path d="M71.005,23.137 C108.933,51.163 146.576,51.496 184.388,23.137" stroke="#000000" stroke-width="1.88"></path>
        <path class="top" d="M27.935,43.098 L68.535,27.022 C107.549,54.949 146.79,55.004 186.258,27.022 L227.707,43.098 C228.119,107.362 237.777,147.989 254.312,171.041 C237.143,247.24 220.804,320.189 220.575,329.942 L35.904,329.942 C30.738,297.283 15.282,232.423 0.938,171.041 C17.798,146.662 25.681,101.421 27.935,43.098 L27.935,43.098 Z"  stroke="#000000" stroke-width="1.88"></path>
        <polygon fill="#000" fill-rule="evenodd" transform="translate(236.237000, 109.126500) scale(-1, 1) translate(-236.237000, -109.126500) " points="252.665 39.004 252.883 39.061 253.082 39.17 253.248 39.322 253.374 39.51 253.45 39.723 253.474 39.948 253.459 40.895 253.443 41.84 253.425 42.781 253.407 43.718 253.388 44.651 253.367 45.581 253.346 46.507 253.323 47.429 253.3 48.348 253.275 49.263 253.25 50.175 253.224 51.082 253.196 51.986 253.168 52.887 253.138 53.784 253.108 54.677 253.076 55.566 253.044 56.452 253.01 57.335 252.976 58.213 252.94 59.088 252.904 59.96 252.866 60.828 252.828 61.692 252.788 62.553 252.748 63.41 252.706 64.264 252.664 65.114 252.62 65.961 252.576 66.804 252.531 67.643 252.484 68.48 252.437 69.312 252.389 70.141 252.34 70.966 252.289 71.788 252.238 72.607 252.186 73.422 252.133 74.233 252.079 75.041 252.024 75.846 251.968 76.647 251.911 77.445 251.853 78.239 251.794 79.03 251.734 79.817 251.673 80.601 251.612 81.381 251.549 82.159 251.485 82.932 251.421 83.702 251.355 84.469 251.289 85.233 251.222 85.993 251.153 86.749 251.084 87.503 251.014 88.253 250.943 88.999 250.871 89.743 250.798 90.482 250.724 91.219 250.649 91.952 250.573 92.682 250.496 93.409 250.419 94.132 250.34 94.852 250.261 95.569 250.18 96.282 250.099 96.992 250.017 97.699 249.934 98.402 249.85 99.102 249.765 99.799 249.679 100.493 249.592 101.184 249.505 101.871 249.416 102.555 249.327 103.236 249.236 103.913 249.145 104.587 249.053 105.258 248.96 105.926 248.866 106.591 248.771 107.253 248.676 107.911 248.579 108.566 248.482 109.218 248.383 109.867 248.284 110.512 248.184 111.155 248.083 111.794 247.981 112.43 247.879 113.063 247.775 113.693 247.67 114.32 247.565 114.944 247.459 115.564 247.352 116.182 247.244 116.796 247.135 117.407 247.025 118.016 246.915 118.621 246.804 119.223 246.691 119.822 246.578 120.418 246.464 121.01 246.349 121.6 246.234 122.187 246.117 122.771 246 123.351 245.882 123.929 245.763 124.504 245.643 125.075 245.522 125.644 245.401 126.21 245.278 126.773 245.155 127.332 245.031 127.889 244.906 128.443 244.78 128.994 244.654 129.541 244.526 130.086 244.398 130.628 244.269 131.167 244.139 131.703 244.008 132.236 243.877 132.767 243.745 133.294 243.611 133.818 243.477 134.34 243.343 134.859 243.207 135.374 243.071 135.887 242.933 136.397 242.795 136.904 242.657 137.409 242.517 137.91 242.377 138.409 242.235 138.904 242.093 139.397 241.95 139.887 241.807 140.374 241.662 140.859 241.517 141.341 241.371 141.819 241.224 142.295 241.077 142.769 240.928 143.239 240.779 143.707 240.629 144.172 240.478 144.634 240.327 145.093 240.174 145.55 240.021 146.004 239.867 146.455 239.713 146.903 239.557 147.349 239.401 147.792 239.244 148.232 239.086 148.67 238.928 149.104 238.769 149.537 238.609 149.966 238.448 150.393 238.286 150.817 238.124 151.238 237.961 151.657 237.797 152.073 237.632 152.487 237.467 152.897 237.301 153.306 237.134 153.711 236.966 154.114 236.798 154.514 236.629 154.912 236.459 155.307 236.288 155.7 236.117 156.089 235.945 156.477 235.772 156.862 235.598 157.244 235.424 157.623 235.249 158 235.073 158.375 234.896 158.747 234.719 159.116 234.541 159.483 234.362 159.847 234.182 160.209 234.002 160.568 233.821 160.925 233.64 161.279 233.457 161.631 233.274 161.98 233.09 162.327 232.906 162.671 232.72 163.013 232.534 163.352 232.347 163.689 232.16 164.023 231.972 164.355 231.783 164.685 231.593 165.012 231.403 165.337 231.212 165.659 231.02 165.978 230.828 166.296 230.635 166.611 230.441 166.923 230.246 167.234 230.051 167.541 229.855 167.847 229.658 168.15 229.461 168.45 229.263 168.748 229.064 169.044 228.865 169.338 228.665 169.629 228.464 169.918 228.262 170.204 228.06 170.489 227.857 170.77 227.654 171.05 227.45 171.327 227.245 171.602 227.039 171.875 226.833 172.145 226.626 172.413 226.418 172.679 226.21 172.942 226.001 173.203 225.791 173.462 225.581 173.719 225.37 173.973 225.158 174.225 224.946 174.475 224.733 174.723 224.519 174.968 224.305 175.211 224.09 175.452 223.874 175.691 223.658 175.927 223.441 176.162 223.224 176.394 223.005 176.624 222.787 176.851 222.567 177.077 222.347 177.3 222.126 177.521 221.905 177.74 221.682 177.957 221.46 178.172 221.236 178.384 221.012 178.595 220.788 178.803 220.565 179.007 220.381 179.138 220.171 179.222 219.947 179.253 219.722 179.229 219.51 179.152 219.322 179.027 219.169 178.86 219.061 178.662 219.003 178.443 219 178.217 219.05 177.997 219.152 177.795 219.299 177.624 219.518 177.424 219.733 177.224 219.948 177.022 220.163 176.818 220.377 176.611 220.59 176.403 220.803 176.192 221.016 175.98 221.228 175.765 221.439 175.548 221.65 175.328 221.86 175.107 222.069 174.884 222.278 174.658 222.487 174.43 222.695 174.2 222.902 173.967 223.109 173.733 223.315 173.496 223.521 173.257 223.726 173.015 223.93 172.772 224.134 172.526 224.338 172.278 224.54 172.027 224.742 171.775 224.944 171.52 225.145 171.263 225.345 171.003 225.545 170.741 225.745 170.477 225.943 170.211 226.141 169.942 226.339 169.671 226.535 169.397 226.732 169.122 226.927 168.843 227.122 168.563 227.317 168.28 227.511 167.995 227.704 167.707 227.896 167.417 228.088 167.125 228.28 166.83 228.47 166.533 228.66 166.233 228.85 165.931 229.039 165.627 229.227 165.32 229.415 165.01 229.602 164.699 229.788 164.384 229.973 164.068 230.159 163.748 230.343 163.427 230.527 163.103 230.71 162.776 230.892 162.447 231.074 162.115 231.255 161.781 231.436 161.445 231.615 161.105 231.795 160.764 231.973 160.42 232.151 160.073 232.328 159.724 232.505 159.372 232.681 159.017 232.856 158.66 233.03 158.301 233.204 157.939 233.377 157.574 233.55 157.207 233.721 156.837 233.893 156.465 234.063 156.089 234.233 155.712 234.402 155.331 234.57 154.949 234.738 154.563 234.905 154.175 235.071 153.784 235.236 153.39 235.401 152.994 235.565 152.595 235.729 152.194 235.892 151.79 236.054 151.383 236.215 150.973 236.375 150.561 236.535 150.146 236.694 149.728 236.853 149.308 237.011 148.885 237.167 148.459 237.324 148.03 237.479 147.599 237.634 147.165 237.788 146.728 237.941 146.289 238.094 145.846 238.246 145.401 238.397 144.953 238.547 144.503 238.697 144.049 238.846 143.593 238.994 143.134 239.141 142.672 239.288 142.207 239.433 141.74 239.578 141.27 239.723 140.796 239.866 140.32 240.009 139.842 240.151 139.36 240.292 138.875 240.433 138.388 240.573 137.897 240.711 137.404 240.85 136.908 240.987 136.409 241.124 135.907 241.259 135.403 241.394 134.895 241.529 134.384 241.662 133.871 241.795 133.354 241.927 132.835 242.058 132.313 242.188 131.788 242.317 131.259 242.446 130.728 242.574 130.194 242.701 129.657 242.827 129.117 242.953 128.574 243.077 128.028 243.201 127.479 243.324 126.927 243.447 126.372 243.568 125.814 243.688 125.252 243.808 124.688 243.927 124.121 244.045 123.551 244.163 122.978 244.279 122.402 244.395 121.822 244.509 121.24 244.623 120.654 244.736 120.066 244.849 119.474 244.96 118.879 245.071 118.282 245.181 117.681 245.289 117.077 245.398 116.47 245.505 115.859 245.611 115.246 245.717 114.629 245.821 114.01 245.925 113.387 246.028 112.761 246.13 112.132 246.231 111.5 246.332 110.864 246.431 110.226 246.53 109.584 246.628 108.939 246.725 108.291 246.821 107.639 246.916 106.985 247.01 106.327 247.103 105.666 247.196 105.002 247.287 104.334 247.378 103.664 247.468 102.99 247.557 102.312 247.645 101.632 247.732 100.948 247.819 100.261 247.904 99.571 247.988 98.877 248.072 98.181 248.155 97.48 248.237 96.777 248.317 96.07 248.397 95.36 248.476 94.647 248.555 93.93 248.632 93.21 248.708 92.487 248.784 91.76 248.858 91.03 248.932 90.297 249.004 89.56 249.076 88.82 249.147 88.076 249.217 87.33 249.286 86.579 249.354 85.826 249.421 85.069 249.487 84.308 249.553 83.544 249.617 82.777 249.68 82.006 249.743 81.232 249.804 80.455 249.865 79.674 249.924 78.889 249.983 78.101 250.041 77.31 250.097 76.515 250.153 75.717 250.208 74.915 250.262 74.11 250.315 73.301 250.367 72.489 250.418 71.673 250.468 70.853 250.517 70.031 250.565 69.204 250.612 68.374 250.659 67.541 250.704 66.704 250.748 65.864 250.791 65.02 250.834 64.172 250.875 63.321 250.915 62.466 250.955 61.608 250.993 60.746 251.03 59.88 251.067 59.011 251.102 58.139 251.136 57.262 251.17 56.382 251.202 55.499 251.234 54.612 251.264 53.721 251.294 52.826 251.322 51.928 251.349 51.026 251.376 50.121 251.401 49.212 251.426 48.299 251.449 47.383 251.471 46.463 251.493 45.539 251.513 44.611 251.532 43.68 251.551 42.745 251.568 41.806 251.584 40.864 251.599 39.917 251.63 39.694 251.714 39.484 251.845 39.3 252.017 39.153 252.218 39.051 252.439 39 252.665 39.004"></polygon>
        <polygon fill="#000" points="35.683 39.171 35.901 39.228 36.1 39.337 36.266 39.489 36.392 39.677 36.468 39.89 36.492 40.115 36.477 41.062 36.461 42.007 36.443 42.948 36.425 43.885 36.406 44.818 36.385 45.748 36.364 46.674 36.341 47.596 36.318 48.515 36.293 49.43 36.268 50.342 36.242 51.249 36.214 52.153 36.186 53.054 36.156 53.951 36.126 54.844 36.094 55.733 36.062 56.619 36.028 57.502 35.994 58.38 35.958 59.255 35.922 60.127 35.884 60.995 35.846 61.859 35.806 62.72 35.766 63.577 35.724 64.431 35.682 65.281 35.638 66.128 35.594 66.971 35.549 67.81 35.502 68.647 35.455 69.479 35.407 70.308 35.358 71.133 35.307 71.955 35.256 72.774 35.204 73.589 35.151 74.4 35.097 75.208 35.042 76.013 34.986 76.814 34.929 77.612 34.871 78.406 34.812 79.197 34.752 79.984 34.691 80.768 34.63 81.548 34.567 82.326 34.503 83.099 34.439 83.869 34.373 84.636 34.307 85.4 34.24 86.16 34.171 86.916 34.102 87.67 34.032 88.42 33.961 89.166 33.889 89.91 33.816 90.649 33.742 91.386 33.667 92.119 33.591 92.849 33.514 93.576 33.437 94.299 33.358 95.019 33.279 95.736 33.198 96.449 33.117 97.159 33.035 97.866 32.952 98.569 32.868 99.269 32.783 99.966 32.697 100.66 32.61 101.351 32.523 102.038 32.434 102.722 32.345 103.403 32.254 104.08 32.163 104.754 32.071 105.425 31.978 106.093 31.884 106.758 31.789 107.42 31.694 108.078 31.597 108.733 31.5 109.385 31.401 110.034 31.302 110.679 31.202 111.322 31.101 111.961 30.999 112.597 30.897 113.23 30.793 113.86 30.688 114.487 30.583 115.111 30.477 115.731 30.37 116.349 30.262 116.963 30.153 117.574 30.043 118.183 29.933 118.788 29.822 119.39 29.709 119.989 29.596 120.585 29.482 121.177 29.367 121.767 29.252 122.354 29.135 122.938 29.018 123.518 28.9 124.096 28.781 124.671 28.661 125.242 28.54 125.811 28.419 126.377 28.296 126.94 28.173 127.499 28.049 128.056 27.924 128.61 27.798 129.161 27.672 129.708 27.544 130.253 27.416 130.795 27.287 131.334 27.157 131.87 27.026 132.403 26.895 132.934 26.763 133.461 26.629 133.985 26.495 134.507 26.361 135.026 26.225 135.541 26.089 136.054 25.951 136.564 25.813 137.071 25.675 137.576 25.535 138.077 25.395 138.576 25.253 139.071 25.111 139.564 24.968 140.054 24.825 140.541 24.68 141.026 24.535 141.508 24.389 141.986 24.242 142.462 24.095 142.936 23.946 143.406 23.797 143.874 23.647 144.339 23.496 144.801 23.345 145.26 23.192 145.717 23.039 146.171 22.885 146.622 22.731 147.07 22.575 147.516 22.419 147.959 22.262 148.399 22.104 148.837 21.946 149.271 21.787 149.704 21.627 150.133 21.466 150.56 21.304 150.984 21.142 151.405 20.979 151.824 20.815 152.24 20.65 152.654 20.485 153.064 20.319 153.473 20.152 153.878 19.984 154.281 19.816 154.681 19.647 155.079 19.477 155.474 19.306 155.867 19.135 156.256 18.963 156.644 18.79 157.029 18.616 157.411 18.442 157.79 18.267 158.167 18.091 158.542 17.914 158.914 17.737 159.283 17.559 159.65 17.38 160.014 17.2 160.376 17.02 160.735 16.839 161.092 16.658 161.446 16.475 161.798 16.292 162.147 16.108 162.494 15.924 162.838 15.738 163.18 15.552 163.519 15.365 163.856 15.178 164.19 14.99 164.522 14.801 164.852 14.611 165.179 14.421 165.504 14.23 165.826 14.038 166.145 13.846 166.463 13.653 166.778 13.459 167.09 13.264 167.401 13.069 167.708 12.873 168.014 12.676 168.317 12.479 168.617 12.281 168.915 12.082 169.211 11.883 169.505 11.683 169.796 11.482 170.085 11.28 170.371 11.078 170.656 10.875 170.937 10.672 171.217 10.468 171.494 10.263 171.769 10.057 172.042 9.851 172.312 9.644 172.58 9.436 172.846 9.228 173.109 9.019 173.37 8.809 173.629 8.599 173.886 8.388 174.14 8.176 174.392 7.964 174.642 7.751 174.89 7.537 175.135 7.323 175.378 7.108 175.619 6.892 175.858 6.676 176.094 6.459 176.329 6.242 176.561 6.023 176.791 5.805 177.018 5.585 177.244 5.365 177.467 5.144 177.688 4.923 177.907 4.7 178.124 4.478 178.339 4.254 178.551 4.03 178.762 3.806 178.97 3.583 179.174 3.399 179.305 3.189 179.389 2.965 179.42 2.74 179.396 2.528 179.319 2.34 179.194 2.187 179.027 2.079 178.829 2.021 178.61 2.018 178.384 2.068 178.164 2.17 177.962 2.317 177.791 2.536 177.591 2.751 177.391 2.966 177.189 3.181 176.985 3.395 176.778 3.608 176.57 3.821 176.359 4.034 176.147 4.246 175.932 4.457 175.715 4.668 175.495 4.878 175.274 5.087 175.051 5.296 174.825 5.505 174.597 5.713 174.367 5.92 174.134 6.127 173.9 6.333 173.663 6.539 173.424 6.744 173.182 6.948 172.939 7.152 172.693 7.356 172.445 7.558 172.194 7.76 171.942 7.962 171.687 8.163 171.43 8.363 171.17 8.563 170.908 8.763 170.644 8.961 170.378 9.159 170.109 9.357 169.838 9.553 169.564 9.75 169.289 9.945 169.01 10.14 168.73 10.335 168.447 10.529 168.162 10.722 167.874 10.914 167.584 11.106 167.292 11.298 166.997 11.488 166.7 11.678 166.4 11.868 166.098 12.057 165.794 12.245 165.487 12.433 165.177 12.62 164.866 12.806 164.551 12.991 164.235 13.177 163.915 13.361 163.594 13.545 163.27 13.728 162.943 13.91 162.614 14.092 162.282 14.273 161.948 14.454 161.612 14.633 161.272 14.813 160.931 14.991 160.587 15.169 160.24 15.346 159.891 15.523 159.539 15.699 159.184 15.874 158.827 16.048 158.468 16.222 158.106 16.395 157.741 16.568 157.374 16.739 157.004 16.911 156.632 17.081 156.256 17.251 155.879 17.42 155.498 17.588 155.116 17.756 154.73 17.923 154.342 18.089 153.951 18.254 153.557 18.419 153.161 18.583 152.762 18.747 152.361 18.91 151.957 19.072 151.55 19.233 151.14 19.393 150.728 19.553 150.313 19.712 149.895 19.871 149.475 20.029 149.052 20.185 148.626 20.342 148.197 20.497 147.766 20.652 147.332 20.806 146.895 20.959 146.456 21.112 146.013 21.264 145.568 21.415 145.12 21.565 144.67 21.715 144.216 21.864 143.76 22.012 143.301 22.159 142.839 22.306 142.374 22.451 141.907 22.596 141.437 22.741 140.963 22.884 140.487 23.027 140.009 23.169 139.527 23.31 139.042 23.451 138.555 23.591 138.064 23.729 137.571 23.868 137.075 24.005 136.576 24.142 136.074 24.277 135.57 24.412 135.062 24.547 134.551 24.68 134.038 24.813 133.521 24.945 133.002 25.076 132.48 25.206 131.955 25.335 131.426 25.464 130.895 25.592 130.361 25.719 129.824 25.845 129.284 25.971 128.741 26.095 128.195 26.219 127.646 26.342 127.094 26.465 126.539 26.586 125.981 26.706 125.419 26.826 124.855 26.945 124.288 27.063 123.718 27.181 123.145 27.297 122.569 27.413 121.989 27.527 121.407 27.641 120.821 27.754 120.233 27.867 119.641 27.978 119.046 28.089 118.449 28.199 117.848 28.307 117.244 28.416 116.637 28.523 116.026 28.629 115.413 28.735 114.796 28.839 114.177 28.943 113.554 29.046 112.928 29.148 112.299 29.249 111.667 29.35 111.031 29.449 110.393 29.548 109.751 29.646 109.106 29.743 108.458 29.839 107.806 29.934 107.152 30.028 106.494 30.121 105.833 30.214 105.169 30.305 104.501 30.396 103.831 30.486 103.157 30.575 102.479 30.663 101.799 30.75 101.115 30.837 100.428 30.922 99.738 31.006 99.044 31.09 98.348 31.173 97.647 31.255 96.944 31.335 96.237 31.415 95.527 31.494 94.814 31.573 94.097 31.65 93.377 31.726 92.654 31.802 91.927 31.876 91.197 31.95 90.464 32.022 89.727 32.094 88.987 32.165 88.243 32.235 87.497 32.304 86.746 32.372 85.993 32.439 85.236 32.505 84.475 32.571 83.711 32.635 82.944 32.698 82.173 32.761 81.399 32.822 80.622 32.883 79.841 32.942 79.056 33.001 78.268 33.059 77.477 33.115 76.682 33.171 75.884 33.226 75.082 33.28 74.277 33.333 73.468 33.385 72.656 33.436 71.84 33.486 71.02 33.535 70.198 33.583 69.371 33.63 68.541 33.677 67.708 33.722 66.871 33.766 66.031 33.809 65.187 33.852 64.339 33.893 63.488 33.933 62.633 33.973 61.775 34.011 60.913 34.048 60.047 34.085 59.178 34.12 58.306 34.154 57.429 34.188 56.549 34.22 55.666 34.252 54.779 34.282 53.888 34.312 52.993 34.34 52.095 34.367 51.193 34.394 50.288 34.419 49.379 34.444 48.466 34.467 47.55 34.489 46.63 34.511 45.706 34.531 44.778 34.55 43.847 34.569 42.912 34.586 41.973 34.602 41.031 34.617 40.084 34.648 39.861 34.732 39.651 34.863 39.467 35.035 39.32 35.236 39.218 35.457 39.167 35.683 39.171"></polygon>
    </g>
</svg>
